<?xml version="1.0" encoding="iso-8859-1"?>
<!-- Generator: Adobe Illustrator 19.0.0, SVG Export Plug-In . SVG Version: 6.00 Build 0)  -->
<svg version="1.1" id="Layer_1" xmlns="http://www.w3.org/2000/svg" xmlns:xlink="http://www.w3.org/1999/xlink" x="0px" y="0px"
	 viewBox="0 0 473.957 473.957" style="enable-background:new 0 0 473.957 473.957;" xml:space="preserve">
<path style="fill:#F4DF81;" d="M0,236.982C0,106.095,106.106,0,236.975,0c130.884,0,236.982,106.095,236.982,236.982
	c0,130.877-106.098,236.975-236.982,236.975C106.106,473.961,0,367.859,0,236.982z"/>
<path style="fill:#AC7753;" d="M118.151,170.727c0,0,31.27,47.532,76.306,3.753c0,0,16.262-47.528,53.781-47.528
	c0,0,30.028-56.295,77.556,3.749c0,0,77.556,25.018,40.033,88.811c0,0-70.05,70.054-136.347,15.012l-23.768-7.502
	c0,0-50.031,31.27-96.314-12.516c0,0-15.012-8.752-20.019-31.27L118.151,170.727z"/>
<path style="fill:#A9714A;" d="M194.457,174.48c0,0,16.262-47.528,53.781-47.528c0,0,30.028-56.295,77.556,3.749
	c0,0,77.556,25.018,40.033,88.811c0,0-70.05,70.054-136.347,15.012l-23.768-7.502C205.712,227.022,196.459,196.713,194.457,174.48z"
	/>
<path style="fill:#9C653E;" d="M360.461,392.97h22.245c0,0-1.665-20.572-1.119-32.808c0.561-12.228,8.344-38.353,8.344-38.353
	s-4.445-26.133-3.895-46.151c0,0,1.665-33.354,4.999-71.715c0,0,3.895-49.478-47.248-64.486c0,0-14.455,81.167,8.34,100.628
	c0,0,16.677,18.9,20.011,40.018c0,0,5.56,45.59,2.23,65.605c0,0,5.56,33.916-11.678,43.929
	C362.691,389.636,356.806,390.055,360.461,392.97z"/>
<path style="fill:#AF7B59;" d="M378.119,281.775c0,0,0.415-106.738-13.762-124.261c0,0,10.574-2.002,16.954,22.245
	c5.321,20.187,6.395,61.814,8.486,107.853C389.797,287.616,379.784,287.19,378.119,281.775z"/>
<path style="fill:#A9714A;" d="M208.129,209.506l1.111,36.131l23.906,58.941c0,0,0,16.116,3.895,20.565l1.665,53.38
	c0,0-20.565,8.894-12.228,12.228l28.913,1.665l-5.007-69.5c0,0-0.554-17.231-5.56-22.795l-15.566-55.592l6.118-28.909
	L208.129,209.506z"/>
<path style="fill:#9E6D46;" d="M255.946,241.749l2.776,131.202c0,0,6.672,12.789,1.111,14.462
	c-5.56,1.658-10.559-1.119-10.559-1.119s-11.678-7.775,2.223-12.236l-6.672-73.945l-6.664-64.486L255.946,241.749z"/>
<path style="fill:#A66C41;" d="M336.447,143.344c0,0-24.688,10.092-12.898,88.62c0,0,8.404,34.219,10.092,39.824l1.68,48.243
	l-29.167,60.572c0,0-19.076,8.412-19.076,11.218c0,0-7.061,4.917,24.681,4.486c0,0,5.051-17.384,8.419-20.748l32.535-49.358
	c0,0-1.126-67.307,7.85-79.09C360.562,247.108,401.513,147.269,336.447,143.344z"/>
<path style="fill:#AD6227;" d="M169.148,327.833c32.228,0,62.207-34.428,63.857-36.03l-1.871-1.938
	c-0.46,0.445-43.038,46.858-77.421,32.243c-25.478-10.832-65.811-63.872-65.811-131.326h-2.698
	c0,68.636,40.883,122.517,67.453,133.81C157.99,326.86,163.55,327.833,169.148,327.833z"/>
<g>
	<path style="fill:#DBB281;" d="M213.682,416.693c0,0,24.561,7.368,26.469,8.318c1.908,0.958,1.111,1.747,1.111,1.747l-32.976-4.501
		l-10.795-142.356l-19.263,2.084l2.309,140.968l-37.564,7.147c0,0,0-1.747,1.908-2.537c1.908-0.797,29.497-9.47,29.497-9.47
		l-10.021-154.158l42.387,0.696L213.682,416.693z"/>
	<path style="fill:#DBB281;" d="M161.933,234.906c-0.606-1.115-1.717-1.688-2.967-1.871c-1.156-0.18-1.74,1.557-3.207,2.372
		c-1.104,0.703-4.18,1.777-3.727,2.829c0.965,2.26,4.15,3.304,7.132,3.304c2.975,0,5.583-1.19,5.583-3.304
		C164.747,236.795,164.171,234.591,161.933,234.906z"/>
	<path style="fill:#DBB281;" d="M231.448,276.66c0,0,2.552,9.186,3.48,11.02c0.928,1.819-0.79,8.864-0.79,8.864
		s-2.17-4.61-3.349-5.635c-1.182-1.014-0.561-7.375-3.48-13.732L231.448,276.66z"/>
</g>
<polygon style="fill:#E0E8EA;" points="235.879,287.871 231.291,272.275 202.854,194.296 189.795,195.19 173.611,197.959 
	164.362,201.435 111.187,228.518 137.948,236.275 153.78,247.508 154.917,235.123 129.69,225.948 164.901,215.722 164.418,259.063 
	164.324,412.169 221.656,410.336 206.419,259.706 200.1,208.062 218.902,281.454 221.656,292.454 "/>
<g>
	<path style="fill:#DBB281;" d="M191.22,184.103c1.003,5.306-2.859,10.129-8.625,10.78l0,0c-5.766,0.644-11.255-3.132-12.247-8.441
		l-4.21-22.219c-1.003-5.306,2.859-10.129,8.625-10.776l0,0c5.766-0.647,11.255,3.128,12.254,8.438L191.22,184.103z"/>
	<path style="fill:#DBB281;" d="M188.463,200.193c0.06,3.21-2.731,5.714-6.241,5.598l0,0c-3.51-0.112-6.395-2.791-6.455-6.002
		l-0.239-13.403c-0.052-3.199,2.739-5.706,6.249-5.598l0,0c3.51,0.112,6.395,2.799,6.455,6.002L188.463,200.193z"/>
</g>
<path style="fill:#5D2611;" d="M166.91,170.764l9.699-4.449l12.183,0.007l-2.331-8.187c0,0-2.17-8.165-13.272-6.181
	C164.631,153.481,162.798,156.534,166.91,170.764z"/>
<g>
	<polygon style="fill:#A45B26;" points="208.313,422.175 208.971,426.968 241.267,426.755 224.874,424.521 225.48,420.244 
		221.196,418.41 219.362,422.684 207.553,416.109 	"/>
	<polygon style="fill:#A45B26;" points="181.798,422.979 181.14,427.765 142.977,430.096 165.237,425.318 164.624,421.033 
		168.908,419.207 170.742,423.481 181.147,416.584 	"/>
</g>
<g>
	<path style="fill:#EF4F29;" d="M179.643,149.466c-0.247-0.187-0.483-0.34-0.722-0.457c-0.079-0.026-0.146-0.052-0.213-0.075
		l0.329,1.171C179.037,150.106,179.314,149.716,179.643,149.466z"/>
	<path style="fill:#EF4F29;" d="M178.693,148.897l0.015,0.037c0.067,0.022,0.131,0.049,0.213,0.075
		C178.846,148.972,178.771,148.927,178.693,148.897z"/>
	<path style="fill:#EF4F29;" d="M178.917,149.009c0.239,0.116,0.475,0.269,0.722,0.457c0.052-0.052,0.109-0.09,0.168-0.127
		C179.46,149.204,179.161,149.095,178.917,149.009z"/>
	<path style="fill:#EF4F29;" d="M179.812,149.338c0.153-0.079,0.307-0.135,0.445-0.097c-0.505-0.135-1.021-0.254-1.564-0.34
		c0.079,0.03,0.153,0.075,0.228,0.109C179.161,149.095,179.46,149.204,179.812,149.338z"/>
	<path style="fill:#EF4F29;" d="M179.812,149.338c-0.06,0.037-0.116,0.079-0.168,0.127c0.857,0.64,1.703,1.646,2.522,2.926
		c0.46-0.337,0.958-0.632,1.426-0.819C182.098,150.356,180.77,149.716,179.812,149.338z"/>
</g>
<g>
	<path style="fill:#FFFFFF;" d="M179.812,149.338c0.958,0.382,2.286,1.018,3.779,2.238c0.561-0.228,1.096-0.284,1.482-0.007
		c-1.441-1.029-3.042-1.826-4.816-2.327C180.118,149.204,179.965,149.256,179.812,149.338z"/>
	<path style="fill:#FFFFFF;" d="M182.165,152.392c-0.819-1.28-1.665-2.286-2.522-2.926c-0.329,0.251-0.606,0.64-0.606,0.64
		l1.119,4.004C180.152,154.109,181.076,153.166,182.165,152.392z"/>
	<path style="fill:#FFFFFF;" d="M183.587,151.572c-0.468,0.187-0.965,0.483-1.426,0.819c0.98,1.534,1.923,3.45,2.806,5.575
		l2.66-1.785C186.255,154.094,184.859,152.62,183.587,151.572z"/>
</g>
<g>
	<path style="fill:#EF4F29;" d="M183.587,151.572c1.272,1.044,2.668,2.522,4.041,4.61l1.317-0.868
		c-1.141-1.433-2.425-2.705-3.873-3.749C184.683,151.288,184.152,151.348,183.587,151.572z"/>
	<path style="fill:#EF4F29;" d="M182.165,152.392c-1.089,0.775-2.009,1.717-2.009,1.717l1.665,5.972l3.151-2.11
		C184.085,155.842,183.142,153.926,182.165,152.392z"/>
</g>
<g>
	<path style="fill:#FFFFFF;" d="M184.972,157.967l-3.151,2.11l2.125,7.603l4.101-1.044
		C187.127,163.658,186.094,160.65,184.972,157.967z"/>
	<path style="fill:#FFFFFF;" d="M191.95,165.649l2.125-0.546c-1.212-3.461-2.874-6.934-5.13-9.789l-1.317,0.868
		C189.151,158.495,190.648,161.555,191.95,165.649z"/>
</g>
<g>
	<path style="fill:#EF4F29;" d="M187.632,156.186l-2.66,1.781c1.126,2.683,2.155,5.691,3.076,8.67l3.903-0.992
		C190.648,161.555,189.151,158.495,187.632,156.186z"/>
	<path style="fill:#EF4F29;" d="M193.791,172.897l2.264-0.625c-0.468-2.238-1.111-4.7-1.979-7.166l-2.125,0.546
		C192.627,167.774,193.248,170.18,193.791,172.897z"/>
	<path style="fill:#EF4F29;" d="M188.047,166.641l-4.101,1.044l2.054,7.364l4.101-1.134
		C189.514,171.651,188.822,169.159,188.047,166.641z"/>
</g>
<g>
	<path style="fill:#FFFFFF;" d="M191.95,165.649l-3.903,0.992c0.775,2.518,1.471,5.01,2.054,7.274l3.689-1.018
		C193.248,170.18,192.627,167.774,191.95,165.649z"/>
	<path style="fill:#FFFFFF;" d="M194.719,178.33l2.301-0.385c-0.198-1.534-0.505-3.499-0.965-5.676l-2.264,0.625
		C194.135,174.584,194.442,176.392,194.719,178.33z"/>
	<path style="fill:#FFFFFF;" d="M191.329,178.899c-0.329-1.426-0.745-3.128-1.227-4.984l-4.101,1.134l2.178,7.787l-0.913-3.252
		L191.329,178.899z"/>
</g>
<g>
	<path style="fill:#EF4F29;" d="M190.102,173.915c0.483,1.856,0.898,3.558,1.227,4.984l3.39-0.569
		c-0.277-1.938-0.584-3.746-0.928-5.433L190.102,173.915z"/>
	<path style="fill:#EF4F29;" d="M197.02,177.944L197.02,177.944c0,0.034,0.007,0.071,0.007,0.101
		C197.028,178.008,197.028,177.978,197.02,177.944z"/>
	<path style="fill:#EF4F29;" d="M187.265,179.583l0.913,3.252l3.888-0.651c-0.161-0.76-0.408-1.893-0.737-3.285L187.265,179.583z"/>
</g>
<path style="fill:#FFFFFF;" d="M194.719,178.33l-3.39,0.569c0.329,1.392,0.576,2.526,0.737,3.285l3.076-0.509
	C195.011,180.515,194.865,179.411,194.719,178.33z"/>
<path style="fill:#EF4F29;" d="M195.142,181.675l2.208-0.374v-0.049c-0.007-0.011-0.007-0.041-0.007-0.041c0-0.045,0-0.075,0-0.075
	c-0.007-0.064-0.007-0.105-0.015-0.146c0-0.041,0-0.086-0.007-0.138c-0.007-0.045-0.007-0.094-0.015-0.157
	c0-0.052-0.007-0.112-0.015-0.18c0-0.067-0.007-0.131-0.015-0.21c-0.015-0.064-0.015-0.131-0.022-0.202
	c-0.007-0.082-0.015-0.176-0.022-0.277c-0.015-0.067-0.022-0.131-0.022-0.206c-0.015-0.116-0.022-0.221-0.037-0.344
	c0-0.015-0.007-0.041-0.007-0.064c-0.03-0.292-0.067-0.606-0.109-0.954c-0.007-0.075-0.015-0.146-0.03-0.225
	c0-0.034-0.007-0.071-0.007-0.101l-2.301,0.385C194.865,179.411,195.011,180.515,195.142,181.675z"/>
<path style="fill:#FFFFFF;" d="M182.206,150.517c-0.262-0.206-0.543-0.393-0.819-0.576c0.101,0.21,0.213,0.415,0.314,0.632
	C181.87,150.555,182.038,150.536,182.206,150.517z"/>
<path style="fill:#EF4F29;" d="M185.174,159.228c0.842-0.03,1.673-0.03,2.5-0.007c-0.73-2.342-2.369-6.305-5.467-8.703
	c-0.168,0.019-0.337,0.037-0.505,0.056C182.996,153.106,184.362,156.212,185.174,159.228z"/>
<path style="fill:#FFFFFF;" d="M178.218,151.086c-0.498-0.962-0.98-1.837-1.403-2.578c-1.272-0.06-2.69,0.112-4.247,0.595
	c-0.236,0.079-0.445,0.146-0.674,0.221c0.445,0.73,1.059,1.781,1.74,3.042C175.022,151.864,176.56,151.423,178.218,151.086z"/>
<g>
	<path style="fill:#EF4F29;" d="M181.705,150.573c-0.101-0.217-0.213-0.423-0.314-0.632c-1.295-0.808-2.806-1.347-4.576-1.433
		c0.423,0.741,0.906,1.62,1.403,2.578C179.321,150.869,180.481,150.693,181.705,150.573z"/>
	<path style="fill:#EF4F29;" d="M173.634,152.366c1.149,2.144,2.477,4.898,3.465,7.716c1.504-0.254,3.046-0.471,4.599-0.621
		c-0.876-2.96-2.238-5.953-3.48-8.37C176.56,151.423,175.022,151.864,173.634,152.366z"/>
</g>
<g>
	<path style="fill:#FFFFFF;" d="M178.218,151.086c1.242,2.417,2.601,5.411,3.48,8.37c1.164-0.116,2.331-0.198,3.48-0.232
		c-0.812-3.02-2.178-6.122-3.472-8.655C180.481,150.693,179.321,150.869,178.218,151.086z"/>
	<path style="fill:#FFFFFF;" d="M168.175,154.944c0.958,1.987,1.908,4.228,2.578,6.466c1.938-0.479,4.086-0.947,6.342-1.325
		c-0.988-2.818-2.316-5.568-3.465-7.716C171.516,153.121,169.705,154.027,168.175,154.944z"/>
</g>
<g>
	<path style="fill:#EF4F29;" d="M164.815,157.29c0.819,1.396,1.65,3.136,2.215,5.111c1.096-0.318,2.361-0.662,3.727-0.995
		c-0.674-2.238-1.624-4.475-2.578-6.466C166.824,155.748,165.705,156.556,164.815,157.29z"/>
	<path style="fill:#EF4F29;" d="M173.634,152.366c-0.681-1.265-1.295-2.312-1.74-3.042c-2.339,0.775-4.049,1.624-5.283,2.567
		c0.49,0.906,1.029,1.942,1.564,3.053C169.705,154.027,171.516,153.121,173.634,152.366z"/>
	<path style="fill:#EF4F29;" d="M163.834,163.37c0.075,0.935,0.146,1.923,0.191,2.96c0,0,1.441-0.082,3.641-0.288
		c-0.079-1.28-0.307-2.503-0.636-3.641C165.698,162.775,164.609,163.119,163.834,163.37z"/>
</g>
<path style="fill:#FFFFFF;" d="M177.099,160.081c0.52,1.482,0.95,2.982,1.197,4.423c1.448-0.296,2.881-0.636,4.232-1.025
	c-0.138-1.295-0.43-2.649-0.834-4.015C180.148,159.61,178.603,159.823,177.099,160.081z"/>
<g>
	<path style="fill:#EF4F29;" d="M170.756,161.406c0.438,1.422,0.76,2.84,0.906,4.183c2.069-0.266,4.37-0.621,6.634-1.089
		c-0.247-1.441-0.681-2.937-1.197-4.423C174.843,160.459,172.691,160.927,170.756,161.406z"/>
	<path style="fill:#EF4F29;" d="M181.697,159.46c0.4,1.366,0.696,2.724,0.834,4.015c1.164-0.34,2.264-0.718,3.267-1.138
		c-0.123-1.01-0.337-2.054-0.621-3.109C184.029,159.262,182.857,159.34,181.697,159.46z"/>
</g>
<g>
	<path style="fill:#FFFFFF;" d="M187.673,159.221c-0.827-0.022-1.658-0.022-2.5,0.007c0.284,1.055,0.498,2.103,0.621,3.109
		c0.883-0.374,1.688-0.775,2.384-1.212C188.178,161.125,188.032,160.377,187.673,159.221z"/>
	<path style="fill:#FFFFFF;" d="M167.03,162.401c0.329,1.137,0.554,2.361,0.636,3.641c1.156-0.112,2.514-0.258,3.996-0.449
		c-0.146-1.343-0.468-2.761-0.906-4.183C169.391,161.739,168.126,162.083,167.03,162.401z"/>
</g>
<path style="fill:#EF4F29;" d="M163.879,155.804c-0.213,0.808-0.307,1.673-0.329,2.586c0.359-0.333,0.782-0.703,1.265-1.104
	C164.493,156.74,164.178,156.238,163.879,155.804z"/>
<g>
	<path style="fill:#FFFFFF;" d="M164.815,157.29c-0.483,0.4-0.906,0.771-1.265,1.104c-0.03,1.497,0.138,3.151,0.284,4.977
		c0.775-0.247,1.863-0.591,3.195-0.969C166.465,160.425,165.634,158.685,164.815,157.29z"/>
	<path style="fill:#FFFFFF;" d="M168.175,154.944c-0.535-1.115-1.074-2.148-1.564-3.053c-1.519,1.16-2.339,2.447-2.732,3.918
		c0.299,0.434,0.614,0.935,0.935,1.482C165.705,156.556,166.824,155.748,168.175,154.944z"/>
</g>
<path style="fill:#AA7853;" d="M119.599,144.65c-0.075-0.195-0.153-0.385-0.239-0.565l-17.56-15.558
	c-2.623-1.231-6.073,0.629-9.515,0.629s-6.885-1.86-9.515-0.629l-17.56,15.558c-0.101,0.228-0.206,0.471-0.292,0.722
	c1.257,1.014,2.092,2.761,2.092,4.76c0,1.628-0.561,3.094-1.448,4.127l1.051,18.166l9.792,14.058c8.786,2.47,23.019,2.47,31.798,0
	l9.1-12.531l1.616-19.506c-0.988-1.029-1.616-2.578-1.616-4.314C117.298,147.46,118.226,145.623,119.599,144.65z"/>
<g>
	<path style="fill:#896852;" d="M64.913,144.807c-0.883,2.473-0.79,5.972,0.292,8.213l0.352,0.674
		c0.883-1.029,3.596-2.499,3.596-4.127C69.148,147.569,66.17,145.821,64.913,144.807z"/>
	<path style="fill:#896852;" d="M119.599,144.65c-1.373,0.977-4.722,2.81-4.722,4.917c0,1.736,3.046,3.285,4.034,4.314l0.445-0.861
		C120.467,150.734,120.549,147.135,119.599,144.65z"/>
</g>
<path style="fill:#D65228;" d="M92.632,190.88c-0.045,0-0.086-0.004-0.131-0.011c0,0-13.01-0.344-16.086-1.994
	c-3.068-1.65-10.144-13.276-11.364-18.065c-1.22-4.789-1.119-13.994-1.119-13.994c-0.075-0.528,0.247-1.029,0.76-1.171
	c0,0,18.847-8.965,27.311-8.965c8.471,0,26.9,8.965,26.9,8.965c0.498,0.146,0.804,0.651,0.722,1.164c0,0,0.651,8.565,0.022,12.475
	c-0.629,3.91-7.263,12.221-11.663,15.39c-4.4,3.169-14.96,6.129-14.96,6.129C92.894,190.854,92.77,190.88,92.632,190.88z
	 M77.174,186.872c2.72,1.441,12.022,2.204,15.319,1.901c3.304-0.303,11.394-3.738,14.44-5.92
	c3.046-2.181,9.777-11.476,10.698-14.155c0.92-2.679,1.089-9.122-0.086-10.967c-1.171-1.848-14.054-7.195-25.541-7.195
	s-23.263,5.201-25.018,7.3c-1.755,2.099-0.239,9.871,0.094,12.453C67.42,172.878,74.462,185.432,77.174,186.872z"/>
<g>
	<path style="fill:#AA7853;" d="M69.844,141.35c0,0-9.325-26.9,14.23-8.797L69.844,141.35z"/>
	<path style="fill:#AA7853;" d="M114.577,141.065c0,0,9.317-26.9-14.23-8.801L114.577,141.065z"/>
</g>
<path style="fill:#B38669;" d="M77.234,182.738c0,0,2.559,7.839,5.489,10.211c2.937,2.376,6.226,2.761,9.209,2.784
	c3.207,0.041,6.746-0.483,9.983-2.784c3.237-2.301,5.422-10.211,5.422-10.211c0.153-0.397,0.797-7.005-2.492-12.292
	C100.897,164.1,95.782,159,91.588,159c-4.37,0-10.963,5.688-13.871,12.251C75.509,176.223,77.088,182.367,77.234,182.738z"/>
<path style="fill:#9F7150;" d="M80.325,178.925l4.18,8.745c2.062,0.849,4.752,2.761,7.461,2.795c2.915,0.034,5.86-1.886,8.097-2.795
	l4.18-8.745c0.262-0.879-6.425-25.283-13.418-25.283C83.831,153.634,80.059,178.045,80.325,178.925z"/>
<path style="fill:#B38669;" d="M79.921,173.155c0,0,1.044,7.768,4.094,10.215c3.05,2.447,8.198-1.523,8.198-1.523
	s5.336,3.442,8.198,1.523c2.862-1.92,4.232-10.215,4.232-10.215c0.221-0.696-4.561-12.786-9.706-18.761
	c-1.325-1.542-6.739-1.358-7.974,0.43C82.671,161.047,79.711,172.474,79.921,173.155z"/>
<g>
	<path style="fill:#9F7150;" d="M92.216,183.789c-0.337,0-0.614-0.269-0.621-0.606l-0.423-13.515
		c-0.007-0.344,0.262-0.632,0.606-0.647c0.359,0.022,0.629,0.262,0.636,0.606l0.423,13.523c0.015,0.34-0.254,0.625-0.599,0.64
		H92.216z"/>
	<path style="fill:#9F7150;" d="M82.604,160.605l4.18,7.82c1.388,0.621,3.188,1.893,5.007,1.949c2.155,0.06,4.348-1.22,5.994-1.949
		l4.172-7.82c0.109-0.326-1.242-2.548-3.222-6.885l-13.972,0.258C83.333,158.229,82.503,160.291,82.604,160.605z"/>
</g>
<path style="fill:#AA7853;" d="M82.604,157.2l4.18,7.824c1.388,0.617,3.188,1.901,5.014,1.949c2.148,0.06,4.34-1.22,5.987-1.949
	l4.172-7.824c0.075-0.228-0.576-1.021-1.68-3.854l-8.681-1.897l-7.959,2.234C82.911,156.354,82.54,156.983,82.604,157.2z"/>
<g>
</g>
<g>
</g>
<g>
</g>
<g>
</g>
<g>
</g>
<g>
</g>
<g>
</g>
<g>
</g>
<g>
</g>
<g>
</g>
<g>
</g>
<g>
</g>
<g>
</g>
<g>
</g>
<g>
</g>
</svg>
